<svg viewBox="0 0 64 64" version="1.1" xmlns="http://www.w3.org/2000/svg" desc="Created on https://convert2svg.com/" ><path fill="rgb(187,193,197)" stroke="rgb(187,193,197)" stroke-width="1" opacity="0.9921568627450981" d="M 31.5 3 L 49 21.5 L 44.5 25 L 31.5 13 L 18 25.5 L 16.5 23 L 14 21.5 L 31.5 3 Z " /><path fill="rgb(187,193,197)" stroke="rgb(187,193,197)" stroke-width="1" opacity="0.9921568627450981" d="M 37.5 21 L 38.5 23 L 37.5 21 Z " /><path fill="rgb(187,193,197)" stroke="rgb(187,193,197)" stroke-width="1" opacity="0.9921568627450981" d="M 31.5 26 L 38 31.5 L 32.5 38 L 26 32.5 L 31.5 26 Z " /><path fill="rgb(187,193,197)" stroke="rgb(187,193,197)" stroke-width="1" opacity="0.9921568627450981" d="M 55.5 27 L 61 31.5 L 33.5 60 L 31.5 60 L 4 33.5 Q 3.5 28.5 7.5 28 L 27 45.5 Q 26.3 47.8 28.5 47 L 32.5 51 L 48 35.5 L 55.5 27 Z " /><path fill="rgb(41,61,79)" stroke="rgb(41,61,79)" stroke-width="1" opacity="0.24313725490196078" d="M 31.5 2 L 36 5.5 L 34.5 6 L 31.5 2 Z " /><path fill="rgb(41,61,79)" stroke="rgb(41,61,79)" stroke-width="1" opacity="0.24313725490196078" d="M 29.5 4 L 15.5 19 L 29.5 4 Z " /><path fill="rgb(41,61,79)" stroke="rgb(41,61,79)" stroke-width="1" opacity="0.24313725490196078" d="M 39.5 9 L 51 20.5 L 44.5 27 L 31 14.5 L 32.5 14 L 44.5 26 L 50 20.5 L 39.5 9 Z " /><path fill="rgb(41,61,79)" stroke="rgb(41,61,79)" stroke-width="1" opacity="0.24313725490196078" d="M 29.5 16 L 19.5 27 L 15 25 L 15.5 23 L 19.5 26 L 29.5 16 Z " /><path fill="rgb(41,61,79)" stroke="rgb(41,61,79)" stroke-width="1" opacity="0.24313725490196078" d="M 31.5 24 L 36 27.5 L 32.5 25 L 25 31.5 L 28 35.5 L 24 32.5 L 31.5 24 Z " /><path fill="rgb(41,61,79)" stroke="rgb(41,61,79)" stroke-width="1" opacity="0.24313725490196078" d="M 5.5 29 L 3 32.5 L 2.5 34 L 2 32.5 L 5.5 29 Z " /><path fill="rgb(41,61,79)" stroke="rgb(41,61,79)" stroke-width="1" opacity="0.24313725490196078" d="M 37.5 29 L 40 32.5 L 37 34.5 L 39 31.5 L 37.5 29 Z " /><path fill="rgb(41,61,79)" stroke="rgb(41,61,79)" stroke-width="1" opacity="0.24313725490196078" d="M 59.5 29 Q 64.3 31.3 60 33.5 Q 60.8 35.8 58.5 35 L 61 31.5 L 59.5 29 Z " /><path fill="rgb(41,61,79)" stroke="rgb(41,61,79)" stroke-width="1" opacity="0.24313725490196078" d="M 13.5 31 L 14.5 33 L 13.5 31 Z " /><path fill="rgb(41,61,79)" stroke="rgb(41,61,79)" stroke-width="1" opacity="0.24313725490196078" d="M 48.5 33 L 35.5 47 L 45 36.5 Q 44.3 34.3 46.5 35 L 48.5 33 Z " /><path fill="rgb(41,61,79)" stroke="rgb(41,61,79)" stroke-width="1" opacity="0.24313725490196078" d="M 4.5 34 L 21.5 52 L 4.5 34 Z " /><path fill="rgb(41,61,79)" stroke="rgb(41,61,79)" stroke-width="1" opacity="0.24313725490196078" d="M 17.5 35 L 31.5 50 L 17.5 35 Z " /><path fill="rgb(41,61,79)" stroke="rgb(41,61,79)" stroke-width="1" opacity="0.24313725490196078" d="M 34.5 37 L 32.5 40 L 30 38.5 L 31.5 39 L 34.5 37 Z " /><path fill="rgb(41,61,79)" stroke="rgb(41,61,79)" stroke-width="1" opacity="0.24313725490196078" d="M 50.5 43 L 40 54.5 Q 40.8 56.8 38.5 56 L 37 56.5 L 50.5 43 Z " /><path fill="rgb(41,61,79)" stroke="rgb(41,61,79)" stroke-width="1" opacity="0.24313725490196078" d="M 24.5 54 L 25.5 56 L 24.5 54 Z " /><path fill="rgb(41,61,79)" stroke="rgb(41,61,79)" stroke-width="1" opacity="0.24313725490196078" d="M 29.5 58 L 34 61 L 34.5 59 L 35 60.5 L 31.5 62 L 29.5 58 Z " /><path fill="rgb(0,0,0)" stroke="rgb(0,0,0)" stroke-width="1" opacity="0" d="M 0 0 L 64 0 L 64 64 L 0 64 L 0 0 Z M 32 2 L 15 19 Q 16 21 13 20 L 15 25 L 19 27 L 30 17 Q 29 14 33 15 L 45 27 L 51 21 L 39 9 L 36 5 L 32 2 Z M 32 24 L 24 33 L 29 36 L 30 39 L 33 40 L 35 37 L 40 33 L 38 29 Q 35 30 36 28 L 32 24 Z M 55 25 L 52 30 Q 49 29 50 32 L 45 35 L 33 50 L 17 35 L 15 33 L 8 26 L 2 34 L 4 34 L 23 52 L 24 55 L 27 56 L 30 61 L 34 62 L 35 60 L 40 56 L 51 43 L 55 40 L 59 35 Q 61 36 60 34 L 62 32 L 57 27 Q 58 24 55 25 Z " /><path fill="rgb(111,124,135)" stroke="rgb(111,124,135)" stroke-width="1" opacity="0.8352941176470589" d="M 35.5 6 L 49.5 21 L 35.5 6 Z " /><path fill="rgb(111,124,135)" stroke="rgb(111,124,135)" stroke-width="1" opacity="0.8352941176470589" d="M 23.5 11 L 14.5 21 L 23.5 11 Z " /><path fill="rgb(111,124,135)" stroke="rgb(111,124,135)" stroke-width="1" opacity="0.8352941176470589" d="M 31.5 13 L 19.5 26 L 31.5 13 Z " /><path fill="rgb(111,124,135)" stroke="rgb(111,124,135)" stroke-width="1" opacity="0.8352941176470589" d="M 36.5 17 L 44.5 26 L 36.5 17 Z " /><path fill="rgb(111,124,135)" stroke="rgb(111,124,135)" stroke-width="1" opacity="0.8352941176470589" d="M 16.5 23 L 17.5 25 L 16.5 23 Z " /><path fill="rgb(111,124,135)" stroke="rgb(111,124,135)" stroke-width="1" opacity="0.8352941176470589" d="M 31.5 25 L 39 31.5 L 32.5 39 L 25 32.5 L 31.5 25 Z M 32 26 L 26 33 L 33 38 L 38 32 L 32 26 Z " /><path fill="rgb(111,124,135)" stroke="rgb(111,124,135)" stroke-width="1" opacity="0.8352941176470589" d="M 55.5 26 L 59 28.5 L 56.5 27 L 51.5 31 L 55.5 26 Z " /><path fill="rgb(111,124,135)" stroke="rgb(111,124,135)" stroke-width="1" opacity="0.8352941176470589" d="M 7.5 27 L 9 27.5 L 6.5 29 L 7.5 27 Z " /><path fill="rgb(111,124,135)" stroke="rgb(111,124,135)" stroke-width="1" opacity="0.8352941176470589" d="M 10.5 29 L 24.5 44 L 10.5 29 Z " /><path fill="rgb(111,124,135)" stroke="rgb(111,124,135)" stroke-width="1" opacity="0.8352941176470589" d="M 47.5 35 L 32.5 51 L 47.5 35 Z " /><path fill="rgb(111,124,135)" stroke="rgb(111,124,135)" stroke-width="1" opacity="0.8352941176470589" d="M 57.5 35 L 38.5 55 L 57.5 35 Z " /><path fill="rgb(111,124,135)" stroke="rgb(111,124,135)" stroke-width="1" opacity="0.8352941176470589" d="M 9.5 38 L 28.5 58 L 9.5 38 Z " /><path fill="rgb(111,124,135)" stroke="rgb(111,124,135)" stroke-width="1" opacity="0.8352941176470589" d="M 36.5 57 L 35.5 59 L 36.5 57 Z " /></svg>