<!--?xml version="1.0" standalone="no"?-->
              <svg id="sw-js-blob-svg" viewBox="0 0 100 100" xmlns="http://www.w3.org/2000/svg" version="1.1">
                    <defs> 
                        <linearGradient id="sw-gradient" x1="0" x2="1" y1="1" y2="0">
                            <stop id="stop1" stop-color="rgba(248, 189.37, 55, 1)" offset="0%"></stop>
                            <stop id="stop2" stop-color="rgba(228.391, 251, 31, 1)" offset="100%"></stop>
                        </linearGradient>
                    </defs>
                <path fill="url(#sw-gradient)" d="M8.7,-17.8C10.8,-13.9,11.7,-10.6,17.3,-7.7C22.8,-4.9,33,-2.4,35,1.1C36.9,4.7,30.7,9.4,24.6,11.4C18.6,13.4,12.7,12.7,8.7,12C4.6,11.3,2.3,10.7,-2.8,15.5C-7.9,20.3,-15.7,30.6,-21.9,32.5C-28.1,34.4,-32.7,27.9,-35.7,21.1C-38.6,14.3,-40,7.2,-40,0C-40.1,-7.2,-38.8,-14.5,-33.9,-17.9C-29,-21.3,-20.4,-21,-14.2,-22.5C-7.9,-24,-4,-27.4,-0.3,-26.8C3.3,-26.2,6.6,-21.7,8.7,-17.8Z" width="100%" height="100%" transform="translate(50 50)" style="transition: all 0.3s ease 0s;" stroke-width="0"></path>
              </svg>